<svg width="768" height="840" viewBox="0 0 768 840" fill="none" xmlns="http://www.w3.org/2000/svg">
<path d="M0.141052 514.955L37.6584 551.625L1.06885 537.351C6.92548 634.714 38.3542 739.04 105.793 840C108.228 839.71 110.606 839.42 112.983 839.072C1.01086 495.981 155.487 192.52 440.434 90.9216C218.461 180.625 89.0345 393.338 105.097 638.834C144.18 607.849 182.857 555.919 227.681 495.575L168.65 492.326L252.789 461.979C269.257 439.989 286.653 417.302 305.209 394.441C325.04 369.491 346.147 343.264 370.328 316.167L271.46 298.296L418.631 264.991C431.794 251.936 445.826 238.764 460.903 225.419C485.605 204.125 513.033 182.54 544.925 161.71L498.246 147.668L583.371 138.326C633.065 110.301 692.965 84.7131 768 64.6371C762.839 64.231 731.932 42.4723 659.217 22.1642C588.589 3.01659 476.269 -14.6805 356.585 18.7989C320.111 28.6628 282.884 43.4007 246.874 63.5347L233.885 136.76L220.664 79.259C207.327 87.8464 194.222 97.2461 181.407 107.458L190.047 145.057L169.752 117.09C120.231 159.331 76.7414 214.337 45.9505 283.5L81.3223 342.162L35.3389 308.856C11.9123 369.433 -1.54059 439.815 0.141052 514.955Z" fill="url(#paint0_linear_2_715)"/>
<defs>
<linearGradient id="paint0_linear_2_715" x1="180.595" y1="763.816" x2="728.292" y2="68.2303" gradientUnits="userSpaceOnUse">
<stop offset="0.145" stop-color="#DC619F"/>
<stop offset="0.52" stop-color="#675AF1"/>
<stop offset="0.87" stop-color="#46ADD8"/>
</linearGradient>
</defs>
</svg>
